PathFileType	4	(X/Y/Z)	C:/Users/opensim2020/Desktop/walking_exp_matlab/subject01_walking05_straight_01.trc	
DataRate	CameraRate	NumFrames	NumMarkers	Units	OrigDataRate	OrigDataStartFrame	OrigNumFrames	
100.00	100.00	4	43	mm	100.00	844	239	
Frame#	Time	LFHD			RFHD			LBHD			RBHD			C7			T10			CLAV			STRN			RBAK			LSHO			LUPA			LELB			LFRM			LWRA			LWRB			LFIN			RSHO			RUPA			RELB			RFRM			RWRA			RWRB			RFIN			LASI			RASI			LPSI			RPSI			LTHI			LKNE			LTIB			LANK			LHEE			LTOE			RTHI			RKNE			RTIB			RANK			RHEE			RTOE			*39			*40			*41			*42			
		X1	Y1	Z1	X2	Y2	Z2	X3	Y3	Z3	X4	Y4	Z4	X5	Y5	Z5	X6	Y6	Z6	X7	Y7	Z7	X8	Y8	Z8	X9	Y9	Z9	X10	Y10	Z10	X11	Y11	Z11	X12	Y12	Z12	X13	Y13	Z13	X14	Y14	Z14	X15	Y15	Z15	X16	Y16	Z16	X17	Y17	Z17	X18	Y18	Z18	X19	Y19	Z19	X20	Y20	Z20	X21	Y21	Z21	X22	Y22	Z22	X23	Y23	Z23	X24	Y24	Z24	X25	Y25	Z25	X26	Y26	Z26	X27	Y27	Z27	X28	Y28	Z28	X29	Y29	Z29	X30	Y30	Z30	X31	Y31	Z31	X32	Y32	Z32	X33	Y33	Z33	X34	Y34	Z34	X35	Y35	Z35	X36	Y36	Z36	X37	Y37	Z37	X38	Y38	Z38	X39	Y39	Z39	X40	Y40	Z40	X41	Y41	Z41	X42	Y42	Z42	X43	Y43	Z43	

90	0.890	-1063.42615	-319.63062	1670.45215	-949.97473	-307.95697	1681.59265	-1054.19995	-416.13477	1590.58118	-933.92285	-406.49310	1600.11316	-1015.31281	-419.00735	1422.22375	-1009.36792	-442.10809	1128.68652	-1006.32898	-271.91211	1360.87793	-1012.64288	-223.25938	1206.91443	-943.95087	-467.59021	1224.15076	-1170.12708	-325.68851	1388.08582	-1262.02441	-331.02155	1208.00281	-1278.84448	-314.75900	1055.93469	-1301.38953	-225.73019	979.92133	-1282.87256	-99.46986	926.15253	-1305.42029	-142.37439	890.83881	-1318.02026	-65.87537	860.79871	-856.63940	-344.43695	1382.39001	-768.06165	-413.70569	1179.34973	-769.72009	-416.21219	1055.19434	-740.56830	-401.26184	936.23859	-755.77515	-329.63922	813.43359	-722.55615	-377.81113	817.04297	-722.60724	-347.46268	737.72980	-1120.72913	-271.11377	921.39484	-905.18170	-261.63089	932.97681	-1059.25745	-454.48257	935.14868	-913.56573	-447.72794	939.81592	-1171.16479	-349.11530	589.87543	-1163.45874	-384.78369	457.32373	-1175.99219	-516.70215	319.24408	-1131.63367	-652.43811	145.34026	-1080.74243	-705.00128	149.18269	-1124.87805	-559.45270	32.10504	-837.95392	-251.76889	606.70056	-864.50208	-205.61600	455.90366	-849.96765	-224.82175	280.23572	-893.94495	-213.18686	73.48671	-943.97736	-259.32056	33.43787	-898.46021	-71.02046	39.14428	-972.47345	-330.83951	1708.72302	-3101.81323	1973.16541	1023.42798	-3140.67212	2012.52612	1022.06128			 
91	0.900	-1061.22925	-311.41602	1671.62390	-947.69293	-299.54657	1682.88037	-1051.76892	-407.75754	1591.61206	-931.44690	-397.81030	1601.22461	-1012.91980	-410.00873	1423.12610	-1007.42767	-432.71405	1129.71399	-1003.87836	-262.84927	1362.32336	-1010.67474	-213.80151	1208.42419	-941.69263	-457.97522	1224.97827	-1167.81299	-316.97879	1389.46887	-1259.76599	-323.55670	1209.35217	-1276.52271	-309.01071	1057.24194	-1299.15918	-220.95424	980.07892	-1280.71594	-95.52351	924.30878	-1303.37683	-138.98541	889.71088	-1316.21387	-62.80043	858.77777	-854.41602	-335.20825	1383.67590	-766.06110	-403.53998	1180.23657	-767.68024	-405.31836	1056.24243	-738.76544	-389.87827	937.38281	-754.23401	-317.98691	814.75110	-720.99200	-366.33591	818.33234	-721.09155	-335.17108	738.76965	-1118.54785	-261.61545	922.56409	-903.31586	-251.90115	934.47058	-1057.56909	-444.73581	936.35553	-911.89087	-437.90378	941.77496	-1170.35168	-333.77734	589.64575	-1163.50574	-367.10471	456.81149	-1175.61047	-502.93121	322.53665	-1130.57776	-642.54364	152.28319	-1078.57581	-693.62958	158.54443	-1123.72937	-558.51727	32.67420	-835.96887	-242.94000	607.33032	-862.78680	-200.34593	455.68460	-848.75873	-221.94145	280.08148	-893.70093	-212.77634	73.43944	-943.44910	-259.39072	33.19730	-899.00684	-70.61560	38.42164	-970.29797	-322.50345	1709.94519	-3101.75269	1973.11829	1023.42529	-3140.69189	2012.52698	1022.01190			 
92	0.910	-1059.01538	-303.13867	1672.61389	-945.47162	-291.13785	1683.90039	-1049.42627	-399.37280	1592.52466	-929.09839	-389.28873	1602.11536	-1010.59845	-400.94730	1423.94141	-1005.43530	-423.48868	1130.74146	-1001.92670	-253.81514	1363.65369	-1008.93304	-204.41718	1209.74976	-939.32959	-448.39655	1225.89771	-1165.64819	-308.29977	1390.80164	-1257.65710	-316.02945	1210.65759	-1274.24988	-303.33508	1058.64514	-1296.93018	-216.45367	980.11163	-1278.54956	-91.90590	922.29993	-1301.13672	-135.83800	888.52191	-1313.80505	-60.22178	856.14648	-852.33893	-325.87119	1384.95374	-764.03485	-393.28610	1181.28271	-765.67285	-394.34235	1057.36621	-736.94635	-378.33347	938.58551	-753.01080	-306.34033	816.15656	-719.25146	-353.83438	819.64606	-719.58051	-322.93521	740.06488	-1116.34155	-252.14320	923.90198	-901.26501	-242.37241	935.93439	-1055.73816	-435.19302	937.46973	-910.09979	-427.78073	943.12854	-1169.71362	-317.91635	589.32660	-1163.80969	-349.10934	456.35522	-1174.86475	-488.23090	325.79321	-1129.37415	-631.48840	159.40450	-1076.40222	-681.05054	167.96762	-1121.98584	-556.80121	33.56419	-834.37543	-236.04222	607.89807	-861.10632	-195.46774	455.55585	-847.91486	-218.98064	279.81857	-893.52271	-212.48941	73.45835	-943.25592	-259.38861	33.49051	-899.33203	-70.25710	37.85209	-968.05853	-314.02692	1711.00195	-3101.77271	1973.07996	1023.27515	-3140.61426	2012.52234	1022.04260			 
93	0.920	-1056.80383	-294.91861	1673.56140	-943.35010	-282.80441	1684.65979	-1047.26086	-390.97214	1593.26233	-926.87231	-380.74036	1602.75952	-1008.46918	-392.06870	1424.68091	-1003.48291	-414.40302	1131.61572	-1000.13654	-244.74287	1364.81384	-1007.35974	-195.17902	1210.93298	-936.80328	-438.81131	1226.77661	-1163.66858	-299.75516	1391.99475	-1255.82129	-308.56982	1211.93652	-1271.96118	-297.95709	1059.81616	-1294.81274	-212.14111	980.00128	-1276.34973	-88.50065	920.12524	-1299.02771	-133.00877	887.08142	-1311.72437	-57.82618	853.52173	-850.47260	-316.31192	1386.19788	-761.88593	-382.95813	1182.41846	-763.55890	-383.37631	1058.52502	-735.01074	-366.65363	939.85333	-751.16473	-293.89609	817.73035	-717.41211	-341.66187	820.94177	-717.94189	-310.12106	741.41107	-1114.06445	-243.18352	925.17395	-899.19830	-233.04401	937.24835	-1053.76135	-425.92493	938.35535	-908.24121	-418.32455	944.62054	-1169.13684	-301.92856	588.95013	-1163.77539	-330.97696	455.83398	-1173.99316	-472.61008	328.91766	-1127.78088	-619.44067	166.24605	-1074.38403	-667.97687	176.90483	-1120.58630	-553.29834	35.81184	-832.66608	-230.28146	608.57825	-859.87006	-190.92494	455.28842	-847.20782	-216.33415	279.63977	-893.46234	-212.30560	73.43870	-943.00720	-259.42868	33.11929	-899.36572	-70.03671	37.41301	-965.77844	-305.81342	1711.84302	-3102.01392	1973.09375	1023.47211	-3140.67285	2012.49231	1022.01807			 
